<svg width="108" height="84" viewBox="0 0 108 84" fill="none" xmlns="http://www.w3.org/2000/svg">
<path d="M17.6756 70.0675C17.6756 65.9475 14.4156 62.7875 10.3956 62.7875C6.37563 62.7875 3.11563 65.9475 3.11563 70.0675C3.11563 74.1875 6.37563 77.3475 10.3956 77.3475C11.5756 77.3475 12.6956 77.0675 13.6756 76.5875L15.1756 78.1675L17.4756 76.1275L16.0756 74.6475C17.0756 73.4075 17.6756 71.8275 17.6756 70.0675ZM10.3956 74.2275C8.11563 74.2275 6.31563 72.5675 6.31563 70.0675C6.31563 67.5675 8.11563 65.9075 10.3956 65.9075C12.6756 65.9075 14.4756 67.5675 14.4756 70.0675C14.4756 70.9275 14.2556 71.6875 13.8956 72.3275L11.6556 69.9475L9.35563 71.9875L11.3756 74.1275C11.0556 74.1875 10.7356 74.2275 10.3956 74.2275ZM26.0327 67.0675V72.5275C26.0327 73.9475 25.2727 74.5875 24.1727 74.5875C23.2127 74.5875 22.4327 74.0075 22.4327 72.7675V67.0675H19.4327V73.2075C19.4327 75.9075 21.1527 77.3475 23.1727 77.3475C24.4927 77.3475 25.4927 76.8675 26.0327 76.1275V77.0675H29.0327V67.0675H26.0327ZM33.9128 73.2675H41.0128C41.0928 72.8875 41.1328 72.4875 41.1328 72.0675C41.1328 69.0475 38.9728 66.7875 36.0528 66.7875C32.8928 66.7875 30.7328 69.0875 30.7328 72.0675C30.7328 75.0475 32.8528 77.3475 36.2728 77.3475C38.1728 77.3475 39.6528 76.6475 40.6328 75.2875L38.2328 73.9075C37.8328 74.3475 37.1328 74.6675 36.3128 74.6675C35.2128 74.6675 34.2928 74.3075 33.9128 73.2675ZM33.8528 71.0275C34.1328 70.0075 34.8928 69.4475 36.0328 69.4475C36.9328 69.4475 37.8328 69.8675 38.1528 71.0275H33.8528ZM44.3344 66.1875C45.3144 66.1875 46.1344 65.3675 46.1344 64.3875C46.1344 63.4075 45.3144 62.5875 44.3344 62.5875C43.3544 62.5875 42.5344 63.4075 42.5344 64.3875C42.5344 65.3675 43.3544 66.1875 44.3344 66.1875ZM42.8344 77.0675H45.8344V67.0675H42.8344V77.0675ZM49.6344 66.1875C50.6144 66.1875 51.4344 65.3675 51.4344 64.3875C51.4344 63.4075 50.6144 62.5875 49.6344 62.5875C48.6544 62.5875 47.8344 63.4075 47.8344 64.3875C47.8344 65.3675 48.6544 66.1875 49.6344 66.1875ZM48.1344 77.0675C48.1344 78.1275 47.6344 78.5275 46.5344 78.4675V81.3475C49.6944 81.5275 51.1344 80.1875 51.1344 77.0675V67.0675H48.1344V77.0675ZM58.1422 77.3475C61.0822 77.3475 63.4422 75.0475 63.4422 72.0675C63.4422 69.0875 61.0822 66.7875 58.1422 66.7875C55.2022 66.7875 52.8422 69.0875 52.8422 72.0675C52.8422 75.0475 55.2022 77.3475 58.1422 77.3475ZM58.1422 74.4275C56.8422 74.4275 55.8422 73.4875 55.8422 72.0675C55.8422 70.6475 56.8422 69.7075 58.1422 69.7075C59.4422 69.7075 60.4422 70.6475 60.4422 72.0675C60.4422 73.4875 59.4422 74.4275 58.1422 74.4275ZM78.9191 69.8075C79.6791 69.1475 80.1391 68.2275 80.1391 67.0675C80.1391 64.6475 78.1591 63.0675 75.7191 63.0675H70.2391V77.0675H76.1191C78.6191 77.0675 80.6391 75.4475 80.6391 72.9675C80.6391 71.5475 79.9591 70.4675 78.9191 69.8075ZM75.7191 66.0675C76.4591 66.0675 76.9391 66.5875 76.9391 67.3075C76.9391 68.0275 76.4391 68.5475 75.7191 68.5475H73.4391V66.0675H75.7191ZM76.1191 74.0675H73.4391V71.3875H76.1191C76.9191 71.3875 77.4391 71.9475 77.4391 72.7275C77.4391 73.5075 76.9191 74.0675 76.1191 74.0675ZM87.0866 65.5275C88.9066 66.6475 91.0066 66.2875 91.0066 62.8675H88.6066C88.6066 63.6675 88.4266 63.7675 87.7466 63.3475C85.9266 62.2275 83.8266 62.5875 83.8266 66.0075H86.2266C86.2266 65.2075 86.4066 65.1075 87.0866 65.5275ZM89.5866 67.0675V68.0075C88.9266 67.2475 87.9466 66.7875 86.6066 66.7875C83.9866 66.7875 81.8266 69.0875 81.8266 72.0675C81.8266 75.0475 83.9866 77.3475 86.6066 77.3475C87.9466 77.3475 88.9266 76.8875 89.5866 76.1275V77.0675H92.5866V67.0675H89.5866ZM87.2066 74.5075C85.8266 74.5075 84.8266 73.5675 84.8266 72.0675C84.8266 70.5675 85.8266 69.6275 87.2066 69.6275C88.5866 69.6275 89.5866 70.5675 89.5866 72.0675C89.5866 73.5675 88.5866 74.5075 87.2066 74.5075ZM99.5875 77.3475C102.528 77.3475 104.888 75.0475 104.888 72.0675C104.888 69.0875 102.528 66.7875 99.5875 66.7875C96.6475 66.7875 94.2875 69.0875 94.2875 72.0675C94.2875 75.0475 96.6475 77.3475 99.5875 77.3475ZM99.5875 74.4275C98.2875 74.4275 97.2875 73.4875 97.2875 72.0675C97.2875 70.6475 98.2875 69.7075 99.5875 69.7075C100.888 69.7075 101.888 70.6475 101.888 72.0675C101.888 73.4875 100.888 74.4275 99.5875 74.4275Z" fill="#FE9F0D"/>
<path d="M76.9989 1.21082C73.5306 2.77051 72.1351 3.46827 68.2359 5.62311C66.471 6.58766 64.9318 7.38803 64.8087 7.38803C64.6855 7.38803 64.5829 7.16228 64.5829 6.87497C64.5829 6.34139 64.3161 6.23878 63.3721 6.50557C62.9411 6.60818 62.9001 6.71079 63.0232 7.57273L63.1258 8.51676L61.6277 9.37869C56.8255 12.1082 52.4542 14.4887 46.5233 17.5466C36.6931 22.6156 29.5308 26.5559 26.7398 28.4439L25.7342 29.1212L25.7137 35.1342C25.6931 39.5465 25.57 42.0297 25.2827 44.4513C25.0775 46.2573 24.9543 47.8785 25.0159 48.0632C25.1185 48.3095 25.7342 48.3916 28.1969 48.4942C31.7472 48.6379 34.6203 48.9867 41.0849 50.0744C46.2565 50.9569 55.7378 52.886 56.0661 53.1528C56.1893 53.2349 56.4971 53.317 56.7844 53.317C57.0717 53.317 59.4729 53.789 62.1202 54.3431C75.0082 57.1341 80.1183 57.8729 82.3347 57.2778C83.1351 57.0725 83.1351 57.052 82.0063 57.1546C80.2209 57.2983 76.7732 56.8878 73.5512 56.1285C71.9504 55.7386 69.262 55.1229 67.5997 54.7535C65.0344 54.1994 64.6034 54.0558 64.9113 53.83C65.5475 53.358 64.8497 50.7517 63.8236 49.8282C62.9001 48.9867 61.0531 48.6379 59.6576 49.0278C59.2061 49.1714 59.2471 49.2125 60.068 49.3356C61.4635 49.5819 62.3049 50.1976 62.859 51.3879C63.3516 52.455 63.5157 53.7684 63.1463 53.7684C63.0437 53.7684 61.8124 53.5222 60.4374 53.2349C57.7695 52.6808 57.4001 52.455 57.4001 51.4494C57.4001 50.6491 57.7079 50.1155 58.4878 49.664C59.4318 49.0894 58.7956 49.1509 57.5027 49.7871C56.3124 50.3412 55.5531 51.1211 55.5531 51.7573C55.5531 52.0856 55.4505 52.1472 55.1016 52.0651C53.583 51.6957 43.2192 49.664 42.8087 49.664C42.3983 49.664 42.4393 49.5819 43.1781 48.9457C46.3591 46.2368 43.7528 39.8133 39.5046 39.8133C37.1241 39.8133 34.7024 41.1472 33.7379 42.9737C33.0606 44.2871 33.1222 46.1957 33.8815 47.4886L34.4562 48.4942L33.7789 48.3711C32.8349 48.2069 29.7976 47.9812 28.1148 47.9401L26.7193 47.9196V46.6882C26.7193 46.011 26.904 43.8356 27.1092 41.8655C27.3554 39.2797 27.4581 37.0838 27.3965 34.0465L27.3349 29.8189L30.4133 29.9215C32.6297 29.9831 34.4151 29.901 36.7752 29.6342C40.1614 29.2443 47.1595 29.1827 52.3721 29.5111L54.6296 29.6547L54.7732 30.6398C55.0811 32.8973 56.3124 34.2722 58.0363 34.2722C59.3702 34.2722 61.2583 33.6771 61.8945 33.0409C62.4281 32.5073 62.9411 31.2555 62.9411 30.4961C62.9411 30.3114 63.0437 30.1678 63.1669 30.1678C63.29 30.1678 68.2154 30.5372 74.1053 30.9887C91.0977 32.2816 94.607 32.4868 95.5921 32.22L96.454 31.9738L96.3309 28.7723C95.8384 16.2947 90.7283 6.48505 82.1295 1.45708C80.9392 0.759323 80.6929 0.677235 80.1593 0.861935C79.831 0.964546 79.5642 1.12873 79.5642 1.19029C79.5642 1.27238 80.2209 1.7444 81.0213 2.23693C89.2302 7.30594 94.1761 16.9309 94.6891 28.9159L94.8123 31.8711L92.2675 31.7275C90.872 31.6659 84.9205 31.2349 79.0511 30.7835C73.1818 30.332 66.1631 29.8394 63.4542 29.6547C60.7452 29.4906 58.0773 29.3059 57.5027 29.2443C55.6967 29.0801 47.7546 28.8338 44.6763 28.8544C43.0345 28.8544 40.264 28.998 38.5196 29.1417C34.6203 29.5111 29.7566 29.47 28.4021 29.1006L27.3965 28.8133L29.4282 27.4794C30.5364 26.72 32.3013 25.6324 33.348 25.0372L35.2565 23.9495L36.2211 24.2368C37.3293 24.5857 37.514 25.0372 36.9804 26.0839C36.139 27.6846 35.0924 28.054 33.43 27.2947C32.5886 26.9047 32.5065 26.9047 31.8909 27.2331L31.2342 27.5615L31.9524 27.8282C33.3274 28.3208 35.6054 28.0745 37.2267 27.2331C38.0681 26.7816 38.7453 25.8171 38.8685 24.873L38.9711 24.1137L37.8423 23.7443C37.2267 23.5596 36.5494 23.457 36.3442 23.5186C36.1185 23.5801 36.2416 23.457 36.57 23.2518C37.1446 22.8824 38.9916 21.8973 50.4225 15.9048C52.7415 14.694 56.5997 12.6007 59.0008 11.2462L63.3721 8.78355L63.7825 9.31713C64.706 10.4869 67.0251 11.1436 68.79 10.7126L69.6109 10.5074L68.7079 10.4869C68.1948 10.4664 67.3945 10.2817 66.9019 10.0354C65.9374 9.56339 64.8907 8.3731 65.0549 7.96265C65.2191 7.55221 71.7657 4.02237 71.9709 4.2276C72.2993 4.55595 72.4429 6.6287 72.1967 7.53168C71.9299 8.49623 71.1706 9.50183 70.2265 10.097C69.6724 10.4664 69.6724 10.4869 70.1239 10.3638C71.5194 9.95332 72.8329 8.9272 73.428 7.75743C73.9 6.85445 73.9821 5.72572 73.7564 4.18655L73.5922 3.16043L76.8347 1.58022C78.6202 0.718281 79.9952 0.0205231 79.872 0C79.7694 0 78.4765 0.5541 76.9989 1.21082ZM60.3143 29.9626H61.5046L61.3814 30.6193C61.1967 31.7891 60.6837 32.9588 60.2117 33.4103C59.8012 33.8002 59.637 33.8208 59.0008 33.6566C58.5904 33.5334 58.0158 33.2461 57.7079 32.9999C57.0512 32.4868 56.3945 31.1323 56.374 30.2909V29.6958L57.7695 29.8189C58.5288 29.901 59.6781 29.9626 60.3143 29.9626ZM39.6688 40.7573C40.5308 41.1677 41.5158 42.1528 42.152 43.261C42.9114 44.5539 43.055 46.9756 42.4599 48.1453C42.2341 48.5968 41.9263 49.0688 41.7621 49.192C41.5364 49.3767 39.9972 49.2125 36.5084 48.6584C36.4673 48.6379 36.4879 48.5558 36.5494 48.4532C36.611 48.3711 36.4673 48.1043 36.2416 47.8991C34.4151 46.2573 34.723 42.6043 36.7957 40.8599C37.4729 40.3058 37.6987 40.2237 38.3144 40.3263C38.7043 40.4084 39.3199 40.5931 39.6688 40.7573Z" fill="#FF9F0D"/>
<path d="M78.7433 13.7499C78.3944 13.9757 78.3944 13.9757 79.5026 14.4477C80.5903 14.9197 82.0884 16.4178 82.6836 17.6287C83.9765 20.235 82.4578 23.7033 80.0362 23.7033C78.9485 23.7033 78.1687 23.1492 77.5735 21.9589C76.609 20.0708 77.3273 17.7723 79.2564 16.6025C80.0773 16.0895 79.4821 16.11 78.3329 16.6436C76.3627 17.526 75.3571 19.0652 75.5008 20.9738C75.6034 22.3077 75.9933 23.0055 77.122 23.7648C78.9485 25.0372 83.4634 23.3749 84.5716 21.0559C85.0231 20.1119 84.9821 18.3675 84.4896 17.3003C83.484 15.0634 80.0362 12.9291 78.7433 13.7499Z" fill="#FF9F0D"/>
<path d="M58.3852 22.3488C55.1427 23.3954 52.9468 25.776 53.7266 27.3973C53.8908 27.7256 54.2602 28.1566 54.5475 28.3823C55.0606 28.7518 55.1221 28.7518 55.7583 28.4234L56.415 28.0745L55.9225 27.5409C55.6352 27.2331 55.3479 26.8227 55.2863 26.6174C54.958 25.7145 56.5177 23.5596 58.0568 22.7592C58.9803 22.2872 59.4934 22.2667 60.3758 22.6977C61.6687 23.2928 62.0382 25.0783 61.3814 27.5409C61.2173 28.2182 61.1146 28.8133 61.1557 28.8749C61.2173 28.9159 61.5661 28.8749 61.9355 28.7723C62.5512 28.6286 62.6743 28.4644 62.9822 27.4794C63.4131 26.0839 63.4542 23.9906 63.0437 23.1902C62.8796 22.8619 62.5307 22.4514 62.2844 22.2872C61.6687 21.8563 59.8628 21.8768 58.3852 22.3488Z" fill="#FF9F0D"/>
<path d="M97.2339 32.0148C96.5567 32.1174 96.5156 32.179 95.9821 33.7592L95.428 35.401H93.8067C92.0623 35.4215 91.2414 35.7088 90.1743 36.7144C88.7993 37.9663 88.3272 40.3879 89.2302 41.5371C89.7433 42.1939 90.6463 42.6864 91.3645 42.6864C91.6519 42.6864 91.8776 42.7274 91.8776 42.789C91.8776 42.8506 91.1388 44.3487 90.2563 46.1341C89.3739 47.8991 88.122 50.4233 87.5064 51.7162C86.2955 54.1994 85.3515 55.4923 84.0176 56.4569C83.012 57.1957 83.3403 57.2162 84.7769 56.539C86.0698 55.9233 87.5884 54.4662 88.4093 53.0296C88.7377 52.4345 89.5791 50.6285 90.2974 49.0278C92.0213 45.0875 93.4373 42.4812 93.8888 42.4812C94.1351 42.4812 94.1761 42.4401 93.9709 42.317C93.7862 42.1939 94.0735 41.3935 95.1407 39.1771C96.5362 36.2629 98.1164 32.3021 97.9933 32.0353C97.9522 31.9738 97.6239 31.9532 97.2339 32.0148ZM93.4168 35.9961C93.8272 36.1808 94.1966 36.2013 94.525 36.0782C94.7918 35.9756 95.0586 35.9551 95.0996 35.9961C95.1612 36.0577 94.5455 37.4532 93.7451 39.095L92.3086 42.0913L91.6519 41.7218C90.831 41.2498 90.441 40.47 90.441 39.3002C90.441 38.151 90.8104 37.248 91.6313 36.3655C92.3086 35.6472 92.5138 35.6062 93.4168 35.9961Z" fill="#FF9F0D"/>
<path d="M75.0698 40.3058L74.372 40.5521L75.0493 40.8394C77.594 41.886 79.0306 45.4774 77.594 47.1808C77.122 47.7554 76.9373 47.817 75.9522 47.817C74.5773 47.817 73.6538 47.4476 72.956 46.6267C71.8683 45.3338 72.053 43.6715 73.4075 42.1939L74.2079 41.3319L73.5511 41.414C72.6482 41.5371 71.8683 42.1528 71.2732 43.1584C70.4933 44.4718 70.4112 45.4774 70.9859 46.5856C71.8683 48.3095 73.9205 48.8431 76.7526 48.1043C79.2153 47.4681 79.872 46.8114 79.831 45.0259C79.7489 42.0912 77.1836 39.5465 75.0698 40.3058Z" fill="#FF9F0D"/>
</svg>
