<svg width="110" height="110" viewBox="0 0 110 110" fill="none" xmlns="http://www.w3.org/2000/svg">
<rect width="110" height="110" fill="#FF9F0D"/>
<path d="M17.6756 83.0675C17.6756 78.9475 14.4156 75.7875 10.3956 75.7875C6.37563 75.7875 3.11563 78.9475 3.11563 83.0675C3.11563 87.1875 6.37563 90.3475 10.3956 90.3475C11.5756 90.3475 12.6956 90.0675 13.6756 89.5875L15.1756 91.1675L17.4756 89.1275L16.0756 87.6475C17.0756 86.4075 17.6756 84.8275 17.6756 83.0675ZM10.3956 87.2275C8.11563 87.2275 6.31563 85.5675 6.31563 83.0675C6.31563 80.5675 8.11563 78.9075 10.3956 78.9075C12.6756 78.9075 14.4756 80.5675 14.4756 83.0675C14.4756 83.9275 14.2556 84.6875 13.8956 85.3275L11.6556 82.9475L9.35563 84.9875L11.3756 87.1275C11.0556 87.1875 10.7356 87.2275 10.3956 87.2275ZM26.0327 80.0675V85.5275C26.0327 86.9475 25.2727 87.5875 24.1727 87.5875C23.2127 87.5875 22.4327 87.0075 22.4327 85.7675V80.0675H19.4327V86.2075C19.4327 88.9075 21.1527 90.3475 23.1727 90.3475C24.4927 90.3475 25.4927 89.8675 26.0327 89.1275V90.0675H29.0327V80.0675H26.0327ZM33.9128 86.2675H41.0128C41.0928 85.8875 41.1328 85.4875 41.1328 85.0675C41.1328 82.0475 38.9728 79.7875 36.0528 79.7875C32.8928 79.7875 30.7328 82.0875 30.7328 85.0675C30.7328 88.0475 32.8528 90.3475 36.2728 90.3475C38.1728 90.3475 39.6528 89.6475 40.6328 88.2875L38.2328 86.9075C37.8328 87.3475 37.1328 87.6675 36.3128 87.6675C35.2128 87.6675 34.2928 87.3075 33.9128 86.2675ZM33.8528 84.0275C34.1328 83.0075 34.8928 82.4475 36.0328 82.4475C36.9328 82.4475 37.8328 82.8675 38.1528 84.0275H33.8528ZM44.3344 79.1875C45.3144 79.1875 46.1344 78.3675 46.1344 77.3875C46.1344 76.4075 45.3144 75.5875 44.3344 75.5875C43.3544 75.5875 42.5344 76.4075 42.5344 77.3875C42.5344 78.3675 43.3544 79.1875 44.3344 79.1875ZM42.8344 90.0675H45.8344V80.0675H42.8344V90.0675ZM49.6344 79.1875C50.6144 79.1875 51.4344 78.3675 51.4344 77.3875C51.4344 76.4075 50.6144 75.5875 49.6344 75.5875C48.6544 75.5875 47.8344 76.4075 47.8344 77.3875C47.8344 78.3675 48.6544 79.1875 49.6344 79.1875ZM48.1344 90.0675C48.1344 91.1275 47.6344 91.5275 46.5344 91.4675V94.3475C49.6944 94.5275 51.1344 93.1875 51.1344 90.0675V80.0675H48.1344V90.0675ZM58.1422 90.3475C61.0822 90.3475 63.4422 88.0475 63.4422 85.0675C63.4422 82.0875 61.0822 79.7875 58.1422 79.7875C55.2022 79.7875 52.8422 82.0875 52.8422 85.0675C52.8422 88.0475 55.2022 90.3475 58.1422 90.3475ZM58.1422 87.4275C56.8422 87.4275 55.8422 86.4875 55.8422 85.0675C55.8422 83.6475 56.8422 82.7075 58.1422 82.7075C59.4422 82.7075 60.4422 83.6475 60.4422 85.0675C60.4422 86.4875 59.4422 87.4275 58.1422 87.4275ZM78.9191 82.8075C79.6791 82.1475 80.1391 81.2275 80.1391 80.0675C80.1391 77.6475 78.1591 76.0675 75.7191 76.0675H70.2391V90.0675H76.1191C78.6191 90.0675 80.6391 88.4475 80.6391 85.9675C80.6391 84.5475 79.9591 83.4675 78.9191 82.8075ZM75.7191 79.0675C76.4591 79.0675 76.9391 79.5875 76.9391 80.3075C76.9391 81.0275 76.4391 81.5475 75.7191 81.5475H73.4391V79.0675H75.7191ZM76.1191 87.0675H73.4391V84.3875H76.1191C76.9191 84.3875 77.4391 84.9475 77.4391 85.7275C77.4391 86.5075 76.9191 87.0675 76.1191 87.0675ZM87.0866 78.5275C88.9066 79.6475 91.0066 79.2875 91.0066 75.8675H88.6066C88.6066 76.6675 88.4266 76.7675 87.7466 76.3475C85.9266 75.2275 83.8266 75.5875 83.8266 79.0075H86.2266C86.2266 78.2075 86.4066 78.1075 87.0866 78.5275ZM89.5866 80.0675V81.0075C88.9266 80.2475 87.9466 79.7875 86.6066 79.7875C83.9866 79.7875 81.8266 82.0875 81.8266 85.0675C81.8266 88.0475 83.9866 90.3475 86.6066 90.3475C87.9466 90.3475 88.9266 89.8875 89.5866 89.1275V90.0675H92.5866V80.0675H89.5866ZM87.2066 87.5075C85.8266 87.5075 84.8266 86.5675 84.8266 85.0675C84.8266 83.5675 85.8266 82.6275 87.2066 82.6275C88.5866 82.6275 89.5866 83.5675 89.5866 85.0675C89.5866 86.5675 88.5866 87.5075 87.2066 87.5075ZM99.5875 90.3475C102.528 90.3475 104.888 88.0475 104.888 85.0675C104.888 82.0875 102.528 79.7875 99.5875 79.7875C96.6475 79.7875 94.2875 82.0875 94.2875 85.0675C94.2875 88.0475 96.6475 90.3475 99.5875 90.3475ZM99.5875 87.4275C98.2875 87.4275 97.2875 86.4875 97.2875 85.0675C97.2875 83.6475 98.2875 82.7075 99.5875 82.7075C100.888 82.7075 101.888 83.6475 101.888 85.0675C101.888 86.4875 100.888 87.4275 99.5875 87.4275Z" fill="white"/>
<path d="M76.9989 14.2108C73.5306 15.7705 72.1351 16.4683 68.2359 18.6231C66.471 19.5877 64.9318 20.388 64.8087 20.388C64.6855 20.388 64.5829 20.1623 64.5829 19.875C64.5829 19.3414 64.3161 19.2388 63.3721 19.5056C62.9411 19.6082 62.9001 19.7108 63.0232 20.5727L63.1258 21.5168L61.6277 22.3787C56.8255 25.1082 52.4542 27.4887 46.5233 30.5466C36.6931 35.6156 29.5308 39.5559 26.7398 41.4439L25.7342 42.1212L25.7137 48.1342C25.6931 52.5465 25.57 55.0297 25.2827 57.4513C25.0775 59.2573 24.9543 60.8785 25.0159 61.0632C25.1185 61.3095 25.7342 61.3916 28.1969 61.4942C31.7472 61.6379 34.6203 61.9867 41.0849 63.0744C46.2565 63.9569 55.7378 65.886 56.0661 66.1528C56.1893 66.2349 56.4971 66.317 56.7844 66.317C57.0717 66.317 59.4729 66.789 62.1202 67.3431C75.0082 70.1341 80.1183 70.8729 82.3347 70.2778C83.1351 70.0725 83.1351 70.052 82.0063 70.1546C80.2209 70.2983 76.7732 69.8878 73.5512 69.1285C71.9504 68.7386 69.262 68.1229 67.5997 67.7535C65.0344 67.1994 64.6034 67.0558 64.9113 66.83C65.5475 66.358 64.8497 63.7517 63.8236 62.8282C62.9001 61.9867 61.0531 61.6379 59.6576 62.0278C59.2061 62.1714 59.2471 62.2125 60.068 62.3356C61.4635 62.5819 62.3049 63.1976 62.859 64.3879C63.3516 65.455 63.5157 66.7684 63.1463 66.7684C63.0437 66.7684 61.8124 66.5222 60.4374 66.2349C57.7695 65.6808 57.4001 65.455 57.4001 64.4494C57.4001 63.6491 57.7079 63.1155 58.4878 62.664C59.4318 62.0894 58.7956 62.1509 57.5027 62.7871C56.3124 63.3412 55.5531 64.1211 55.5531 64.7573C55.5531 65.0856 55.4505 65.1472 55.1016 65.0651C53.5829 64.6957 43.2192 62.664 42.8087 62.664C42.3983 62.664 42.4393 62.5819 43.1781 61.9457C46.3591 59.2368 43.7528 52.8133 39.5046 52.8133C37.1241 52.8133 34.7024 54.1472 33.7379 55.9737C33.0606 57.2871 33.1222 59.1957 33.8815 60.4886L34.4562 61.4942L33.7789 61.3711C32.8349 61.2069 29.7976 60.9812 28.1148 60.9401L26.7193 60.9196V59.6882C26.7193 59.011 26.904 56.8356 27.1092 54.8655C27.3554 52.2797 27.4581 50.0838 27.3965 47.0465L27.3349 42.8189L30.4133 42.9215C32.6297 42.9831 34.4151 42.901 36.7752 42.6342C40.1614 42.2443 47.1595 42.1827 52.3721 42.5111L54.6296 42.6547L54.7732 43.6398C55.0811 45.8973 56.3124 47.2723 58.0363 47.2723C59.3702 47.2723 61.2583 46.6771 61.8945 46.0409C62.4281 45.5073 62.9411 44.2555 62.9411 43.4961C62.9411 43.3114 63.0437 43.1678 63.1669 43.1678C63.29 43.1678 68.2154 43.5372 74.1053 43.9887C91.0977 45.2816 94.607 45.4868 95.5921 45.22L96.454 44.9738L96.3309 41.7723C95.8384 29.2947 90.7283 19.485 82.1295 14.4571C80.9392 13.7593 80.6929 13.6772 80.1593 13.8619C79.831 13.9645 79.5642 14.1287 79.5642 14.1903C79.5642 14.2724 80.2209 14.7444 81.0213 15.2369C89.2302 20.3059 94.1761 29.9309 94.6891 41.9159L94.8123 44.8711L92.2675 44.7275C90.872 44.6659 84.9205 44.2349 79.0511 43.7835C73.1817 43.332 66.1631 42.8394 63.4542 42.6547C60.7452 42.4906 58.0773 42.3059 57.5027 42.2443C55.6967 42.0801 47.7546 41.8338 44.6763 41.8544C43.0345 41.8544 40.264 41.998 38.5196 42.1417C34.6203 42.5111 29.7566 42.47 28.4021 42.1006L27.3965 41.8133L29.4282 40.4794C30.5364 39.72 32.3013 38.6324 33.348 38.0372L35.2565 36.9495L36.2211 37.2368C37.3293 37.5857 37.514 38.0372 36.9804 39.0839C36.139 40.6846 35.0924 41.054 33.43 40.2947C32.5886 39.9047 32.5065 39.9047 31.8909 40.2331L31.2342 40.5615L31.9524 40.8282C33.3274 41.3208 35.6054 41.0745 37.2267 40.2331C38.0681 39.7816 38.7453 38.8171 38.8685 37.873L38.9711 37.1137L37.8423 36.7443C37.2267 36.5596 36.5494 36.457 36.3442 36.5186C36.1185 36.5801 36.2416 36.457 36.57 36.2518C37.1446 35.8824 38.9916 34.8973 50.4225 28.9048C52.7415 27.694 56.5997 25.6007 59.0008 24.2462L63.3721 21.7835L63.7825 22.3171C64.706 23.4869 67.0251 24.1436 68.79 23.7126L69.6109 23.5074L68.7079 23.4869C68.1948 23.4664 67.3945 23.2817 66.9019 23.0354C65.9374 22.5634 64.8907 21.3731 65.0549 20.9627C65.2191 20.5522 71.7657 17.0224 71.9709 17.2276C72.2993 17.556 72.4429 19.6287 72.1967 20.5317C71.9299 21.4962 71.1706 22.5018 70.2265 23.097C69.6724 23.4664 69.6724 23.4869 70.1239 23.3638C71.5194 22.9533 72.8329 21.9272 73.428 20.7574C73.9 19.8544 73.9821 18.7257 73.7564 17.1865L73.5922 16.1604L76.8347 14.5802C78.6202 13.7183 79.9952 13.0205 79.872 13C79.7694 13 78.4765 13.5541 76.9989 14.2108ZM60.3143 42.9626H61.5046L61.3814 43.6193C61.1967 44.7891 60.6837 45.9588 60.2117 46.4103C59.8012 46.8002 59.637 46.8208 59.0008 46.6566C58.5904 46.5334 58.0158 46.2461 57.7079 45.9999C57.0512 45.4868 56.3945 44.1323 56.374 43.2909V42.6958L57.7695 42.8189C58.5288 42.901 59.6781 42.9626 60.3143 42.9626ZM39.6688 53.7573C40.5308 54.1677 41.5158 55.1528 42.152 56.261C42.9114 57.5539 43.055 59.9756 42.4599 61.1453C42.2341 61.5968 41.9263 62.0688 41.7621 62.192C41.5364 62.3767 39.9972 62.2125 36.5084 61.6584C36.4673 61.6379 36.4879 61.5558 36.5494 61.4532C36.611 61.3711 36.4673 61.1043 36.2416 60.8991C34.4151 59.2573 34.723 55.6043 36.7957 53.8599C37.4729 53.3058 37.6987 53.2237 38.3144 53.3263C38.7043 53.4084 39.3199 53.5931 39.6688 53.7573Z" fill="white"/>
<path d="M78.7433 26.7499C78.3944 26.9757 78.3944 26.9757 79.5026 27.4477C80.5903 27.9197 82.0884 29.4178 82.6836 30.6287C83.9765 33.235 82.4578 36.7033 80.0362 36.7033C78.9485 36.7033 78.1687 36.1492 77.5735 34.9589C76.609 33.0708 77.3273 30.7723 79.2564 29.6025C80.0773 29.0895 79.4821 29.11 78.3329 29.6436C76.3627 30.526 75.3571 32.0652 75.5008 33.9738C75.6034 35.3077 75.9933 36.0055 77.122 36.7648C78.9485 38.0372 83.4634 36.3749 84.5716 34.0559C85.0231 33.1119 84.9821 31.3675 84.4896 30.3003C83.484 28.0634 80.0362 25.9291 78.7433 26.7499Z" fill="white"/>
<path d="M58.3852 35.3488C55.1427 36.3954 52.9468 38.776 53.7266 40.3973C53.8908 40.7256 54.2602 41.1566 54.5475 41.3823C55.0606 41.7517 55.1221 41.7517 55.7583 41.4234L56.415 41.0745L55.9225 40.5409C55.6352 40.2331 55.3479 39.8227 55.2863 39.6174C54.958 38.7144 56.5177 36.5596 58.0568 35.7592C58.9803 35.2872 59.4934 35.2667 60.3758 35.6977C61.6687 36.2928 62.0382 38.0783 61.3814 40.5409C61.2173 41.2182 61.1146 41.8133 61.1557 41.8749C61.2173 41.9159 61.5661 41.8749 61.9355 41.7723C62.5512 41.6286 62.6743 41.4644 62.9822 40.4794C63.4131 39.0838 63.4542 36.9906 63.0437 36.1902C62.8796 35.8618 62.5307 35.4514 62.2844 35.2872C61.6687 34.8563 59.8628 34.8768 58.3852 35.3488Z" fill="white"/>
<path d="M97.2339 45.0148C96.5567 45.1174 96.5156 45.179 95.9821 46.7592L95.428 48.401H93.8067C92.0623 48.4215 91.2414 48.7088 90.1743 49.7144C88.7993 50.9663 88.3272 53.3879 89.2302 54.5371C89.7433 55.1939 90.6463 55.6864 91.3645 55.6864C91.6519 55.6864 91.8776 55.7274 91.8776 55.789C91.8776 55.8506 91.1388 57.3487 90.2563 59.1341C89.3739 60.8991 88.122 63.4233 87.5064 64.7162C86.2955 67.1994 85.3515 68.4923 84.0176 69.4569C83.012 70.1957 83.3403 70.2162 84.7769 69.539C86.0698 68.9233 87.5884 67.4662 88.4093 66.0296C88.7377 65.4345 89.5791 63.6285 90.2974 62.0278C92.0213 58.0875 93.4373 55.4812 93.8888 55.4812C94.1351 55.4812 94.1761 55.4401 93.9709 55.317C93.7862 55.1939 94.0735 54.3935 95.1407 52.1771C96.5362 49.2629 98.1164 45.3021 97.9933 45.0353C97.9522 44.9738 97.6239 44.9532 97.2339 45.0148ZM93.4168 48.9961C93.8272 49.1808 94.1966 49.2013 94.525 49.0782C94.7918 48.9756 95.0586 48.9551 95.0996 48.9961C95.1612 49.0577 94.5455 50.4532 93.7451 52.095L92.3086 55.0913L91.6519 54.7218C90.831 54.2498 90.441 53.47 90.441 52.3002C90.441 51.151 90.8104 50.248 91.6313 49.3655C92.3086 48.6472 92.5138 48.6062 93.4168 48.9961Z" fill="white"/>
<path d="M75.0698 53.3058L74.372 53.5521L75.0493 53.8394C77.594 54.886 79.0306 58.4774 77.594 60.1808C77.122 60.7554 76.9373 60.817 75.9522 60.817C74.5773 60.817 73.6538 60.4476 72.956 59.6267C71.8683 58.3338 72.053 56.6715 73.4075 55.1939L74.2079 54.3319L73.5511 54.414C72.6482 54.5371 71.8683 55.1528 71.2732 56.1584C70.4933 57.4718 70.4112 58.4774 70.9859 59.5856C71.8683 61.3095 73.9205 61.8431 76.7526 61.1043C79.2153 60.4681 79.872 59.8114 79.831 58.0259C79.7489 55.0912 77.1836 52.5465 75.0698 53.3058Z" fill="white"/>
</svg>
