<svg width="102" height="20" viewBox="0 0 102 20" fill="none" xmlns="http://www.w3.org/2000/svg">
<path d="M14.6756 8.06751C14.6756 3.94751 11.4156 0.787508 7.39563 0.787508C3.37563 0.787508 0.115625 3.94751 0.115625 8.06751C0.115625 12.1875 3.37563 15.3475 7.39563 15.3475C8.57563 15.3475 9.69563 15.0675 10.6756 14.5875L12.1756 16.1675L14.4756 14.1275L13.0756 12.6475C14.0756 11.4075 14.6756 9.82751 14.6756 8.06751ZM7.39563 12.2275C5.11563 12.2275 3.31563 10.5675 3.31563 8.06751C3.31563 5.56751 5.11563 3.90751 7.39563 3.90751C9.67563 3.90751 11.4756 5.56751 11.4756 8.06751C11.4756 8.92751 11.2556 9.68751 10.8956 10.3275L8.65563 7.94751L6.35563 9.98751L8.37563 12.1275C8.05563 12.1875 7.73563 12.2275 7.39563 12.2275ZM23.0327 5.06751V10.5275C23.0327 11.9475 22.2727 12.5875 21.1727 12.5875C20.2127 12.5875 19.4327 12.0075 19.4327 10.7675V5.06751H16.4327V11.2075C16.4327 13.9075 18.1527 15.3475 20.1727 15.3475C21.4927 15.3475 22.4927 14.8675 23.0327 14.1275V15.0675H26.0327V5.06751H23.0327ZM30.9128 11.2675H38.0128C38.0928 10.8875 38.1328 10.4875 38.1328 10.0675C38.1328 7.04751 35.9728 4.78751 33.0528 4.78751C29.8928 4.78751 27.7328 7.08751 27.7328 10.0675C27.7328 13.0475 29.8528 15.3475 33.2728 15.3475C35.1728 15.3475 36.6528 14.6475 37.6328 13.2875L35.2328 11.9075C34.8328 12.3475 34.1328 12.6675 33.3128 12.6675C32.2128 12.6675 31.2928 12.3075 30.9128 11.2675ZM30.8528 9.02751C31.1328 8.00751 31.8928 7.44751 33.0328 7.44751C33.9328 7.44751 34.8328 7.86751 35.1528 9.02751H30.8528ZM41.3344 4.18751C42.3144 4.18751 43.1344 3.36751 43.1344 2.38751C43.1344 1.40751 42.3144 0.587508 41.3344 0.587508C40.3544 0.587508 39.5344 1.40751 39.5344 2.38751C39.5344 3.36751 40.3544 4.18751 41.3344 4.18751ZM39.8344 15.0675H42.8344V5.06751H39.8344V15.0675ZM46.6344 4.18751C47.6144 4.18751 48.4344 3.36751 48.4344 2.38751C48.4344 1.40751 47.6144 0.587508 46.6344 0.587508C45.6544 0.587508 44.8344 1.40751 44.8344 2.38751C44.8344 3.36751 45.6544 4.18751 46.6344 4.18751ZM45.1344 15.0675C45.1344 16.1275 44.6344 16.5275 43.5344 16.4675V19.3475C46.6944 19.5275 48.1344 18.1875 48.1344 15.0675V5.06751H45.1344V15.0675ZM55.1422 15.3475C58.0822 15.3475 60.4422 13.0475 60.4422 10.0675C60.4422 7.08751 58.0822 4.78751 55.1422 4.78751C52.2022 4.78751 49.8422 7.08751 49.8422 10.0675C49.8422 13.0475 52.2022 15.3475 55.1422 15.3475ZM55.1422 12.4275C53.8422 12.4275 52.8422 11.4875 52.8422 10.0675C52.8422 8.64751 53.8422 7.70751 55.1422 7.70751C56.4422 7.70751 57.4422 8.64751 57.4422 10.0675C57.4422 11.4875 56.4422 12.4275 55.1422 12.4275ZM75.9191 7.80751C76.6791 7.14751 77.1391 6.22751 77.1391 5.06751C77.1391 2.64751 75.1591 1.06751 72.7191 1.06751H67.2391V15.0675H73.1191C75.6191 15.0675 77.6391 13.4475 77.6391 10.9675C77.6391 9.54751 76.9591 8.46751 75.9191 7.80751ZM72.7191 4.06751C73.4591 4.06751 73.9391 4.58751 73.9391 5.30751C73.9391 6.02751 73.4391 6.54751 72.7191 6.54751H70.4391V4.06751H72.7191ZM73.1191 12.0675H70.4391V9.38751H73.1191C73.9191 9.38751 74.4391 9.94751 74.4391 10.7275C74.4391 11.5075 73.9191 12.0675 73.1191 12.0675ZM84.0866 3.52751C85.9066 4.64751 88.0066 4.28751 88.0066 0.867508H85.6066C85.6066 1.66751 85.4266 1.76751 84.7466 1.34751C82.9266 0.227508 80.8266 0.587508 80.8266 4.00751H83.2266C83.2266 3.20751 83.4066 3.10751 84.0866 3.52751ZM86.5866 5.06751V6.00751C85.9266 5.24751 84.9466 4.78751 83.6066 4.78751C80.9866 4.78751 78.8266 7.08751 78.8266 10.0675C78.8266 13.0475 80.9866 15.3475 83.6066 15.3475C84.9466 15.3475 85.9266 14.8875 86.5866 14.1275V15.0675H89.5866V5.06751H86.5866ZM84.2066 12.5075C82.8266 12.5075 81.8266 11.5675 81.8266 10.0675C81.8266 8.56751 82.8266 7.62751 84.2066 7.62751C85.5866 7.62751 86.5866 8.56751 86.5866 10.0675C86.5866 11.5675 85.5866 12.5075 84.2066 12.5075ZM96.5875 15.3475C99.5275 15.3475 101.888 13.0475 101.888 10.0675C101.888 7.08751 99.5275 4.78751 96.5875 4.78751C93.6475 4.78751 91.2875 7.08751 91.2875 10.0675C91.2875 13.0475 93.6475 15.3475 96.5875 15.3475ZM96.5875 12.4275C95.2875 12.4275 94.2875 11.4875 94.2875 10.0675C94.2875 8.64751 95.2875 7.70751 96.5875 7.70751C97.8875 7.70751 98.8875 8.64751 98.8875 10.0675C98.8875 11.4875 97.8875 12.4275 96.5875 12.4275Z" fill="#FE9F0D"/>
</svg>
